<?xml version="1.0" encoding="UTF-8" standalone="no"?>
<svg
   version="1.1"
   viewbox="0 0 16 16"
   width="16"
   height="16"
   id="svg1902"
   sodipodi:docname="topdf.svg"
   xml:space="preserve"
   inkscape:version="1.2.1 (9c6d41e410, 2022-07-14)"
   xmlns:inkscape="http://www.inkscape.org/namespaces/inkscape"
   xmlns:sodipodi="http://sodipodi.sourceforge.net/DTD/sodipodi-0.dtd"
   xmlns="http://www.w3.org/2000/svg"
   xmlns:svg="http://www.w3.org/2000/svg"><defs
     id="defs1906"><rect
       x="15.984375"
       y="7.3125"
       width="9.640625"
       height="5.046875"
       id="rect1063" /><rect
       x="-6.8125"
       y="11.625"
       width="15.75"
       height="7.75"
       id="rect996" /><rect
       x="3.7123106"
       y="-28.637825"
       width="27.400388"
       height="16.617009"
       id="rect11811" /><rect
       x="-1.2282675"
       y="5.8683892"
       width="12.637508"
       height="5.2133132"
       id="rect5867" /></defs><sodipodi:namedview
     id="namedview1904"
     pagecolor="#ffffff"
     bordercolor="#000000"
     borderopacity="0.25"
     inkscape:showpageshadow="2"
     inkscape:pageopacity="0.0"
     inkscape:pagecheckerboard="true"
     inkscape:deskcolor="#d1d1d1"
     showgrid="false"
     inkscape:zoom="16"
     inkscape:cx="9.65625"
     inkscape:cy="5.0625"
     inkscape:window-width="1920"
     inkscape:window-height="1009"
     inkscape:window-x="1912"
     inkscape:window-y="-8"
     inkscape:window-maximized="1"
     inkscape:current-layer="svg1902"
     showguides="true" /><path
     d="M 2.8384876,6.2498249 C 6.2524567,0.76762728 11.098884,3.5511675 11.407862,3.7356046 L 12.232691,2.0024377 13.573257,5.7182084 9.8468566,7.015634 10.661754,5.3033595 C 10.302739,5.0771131 6.9178743,3.0292985 2.8382212,6.250391 Z"
     stroke-linejoin="round"
     fill-rule="evenodd"
     stroke="#000000"
     stroke-linecap="round"
     stroke-width="0.976908"
     id="path10638" /><path
     d="M 2.6213546,12.090595 H 1.5612154 v 1.447686 c 0,0.231255 -0.054566,0.406647 -0.1636973,0.526171 -0.1091315,0.11952 -0.2468457,0.17927 -0.41314249,0.17927 -0.17409331,0 -0.31440406,-0.05848 -0.42093769,-0.175395 C 0.45690544,13.948808 0.40363728,13.774716 0.40363728,13.546053 V 9.1417976 c 0,-0.2546414 0.0584643,-0.4365298 0.17539085,-0.5456593 C 0.69595665,8.4870106 0.88174008,8.4324468 1.1363807,8.4324468 h 1.4849745 c 0.4391263,0 0.7769158,0.03378 1.0133684,0.1013383 0.2338544,0.064956 0.4352288,0.1727919 0.6041235,0.3234979 0.1714931,0.1506964 0.3014121,0.3351915 0.3897571,0.5534564 0.088345,0.218263 0.1325176,0.520413 0.1325176,0.7932436 0,0.582038 -0.1792885,1.136965 -0.5378648,1.438376 -0.3585766,0.298815 -0.8925439,0.448223 -1.6019016,0.448223 z M 2.3407294,9.3016214 H 1.5612154 V 11.21754 h 0.779514 c 0.2728299,0 0.5001883,-0.02857 0.6820751,-0.08576 0.1844855,-0.05717 0.3247974,-0.150696 0.4209377,-0.280624 0.09614,-0.129931 0.1442104,-0.413322 0.1442104,-0.623786 0,-0.2520436 -0.074053,-0.5139171 -0.2221615,-0.6724183 C 3.1994949,9.3860546 2.8578076,9.3016098 2.3407298,9.3016098 Z"
     style="font-size:4px;font-family:'Arial Rounded MT Bold';-inkscape-font-specification:'Arial Rounded MT Bold, Normal';text-align:center;text-anchor:middle;white-space:pre;fill:#000000;stroke:#000000;stroke-width:0;stroke-dasharray:none"
     id="path1052"
     sodipodi:nodetypes="ccssscsssssccssccccccsccscsc" /><path
     d="m 6.4448716,8.4324642 h 1.5083599 q 0.5885332,0 1.0094709,0.1091276 0.4209376,0.1091469 0.7639239,0.409246 0.8925437,0.7639242 0.8925437,2.3229532 0,0.514477 -0.08964,0.939313 -0.08964,0.424836 -0.276728,0.767823 -0.187084,0.33909 -0.4794013,0.60802 -0.2299568,0.206571 -0.5027869,0.331295 -0.2728296,0.124725 -0.588533,0.175394 -0.3118056,0.05067 -0.7054604,0.05067 H 6.468257 q -0.3157032,0 -0.4755037,-0.09353 Q 5.832953,13.955332 5.7822845,13.783842 5.7355137,13.608447 5.7355137,13.331726 V 9.1418381 q 0,-0.374167 0.1675955,-0.5417647 Q 6.0707048,8.4324873 6.4448716,8.4324873 Z M 6.8930922,9.348392 v 3.878083 h 0.8769533 q 0.2884205,0 0.4521183,-0.01562 0.1636973,-0.01562 0.3390887,-0.07795 0.1753908,-0.06235 0.3040105,-0.175395 0.5807381,-0.491093 0.5807381,-1.691545 0,-0.845772 -0.2572397,-1.2667096 Q 8.9354193,9.5783197 8.5612525,9.4652897 8.1870857,9.3483728 7.6570161,9.3483728 Z"
     style="font-size:4px;font-family:'Arial Rounded MT Bold';-inkscape-font-specification:'Arial Rounded MT Bold, Normal';text-align:center;text-anchor:middle;white-space:pre;fill:#000000;stroke:#000000;stroke-width:0;stroke-dasharray:none"
     id="path1054" /><path
     d="m 15.050708,9.3250067 h -2.280079 v 1.6571413 h 2.288998 c 0.17669,0 0.307908,0.04028 0.393654,0.120831 0.08835,0.07795 0.132517,0.183165 0.132517,0.315703 0,0.132534 -0.04417,0.237751 -0.132517,0.315702 -0.08834,0.07795 -0.219563,0.116917 -0.393654,0.116917 h -2.288998 v 1.686977 c 0,0.239049 -0.05457,0.417039 -0.163697,0.533967 -0.106532,0.114334 -0.244247,0.1715 -0.413142,0.1715 -0.171493,0 -0.311806,-0.05848 -0.420938,-0.175394 -0.106532,-0.116917 -0.159801,-0.293615 -0.159801,-0.53007 V 9.1418227 c 0,-0.1662943 0.02469,-0.301414 0.07405,-0.4053475 0.04937,-0.106544 0.126021,-0.1832033 0.229957,-0.2299585 0.106532,-0.049377 0.241649,-0.074056 0.405347,-0.074056 h 2.7283 c 0.184485,0 0.3209,0.041569 0.409245,0.1247256 0.09094,0.080554 0.136413,0.1870787 0.136413,0.3195993 0,0.1351178 -0.04547,0.2442492 -0.136413,0.3273983 -0.08835,0.080554 -0.22476,0.1208309 -0.409245,0.1208309 z"
     style="font-size:4px;font-family:'Arial Rounded MT Bold';-inkscape-font-specification:'Arial Rounded MT Bold, Normal';text-align:center;text-anchor:middle;white-space:pre;fill:#000000;stroke:#000000;stroke-width:0;stroke-dasharray:none"
     id="path1056"
     sodipodi:nodetypes="cccscssscscscssccsscsccc" /></svg>
